<svg width="33" height="33" viewBox="0 0 33 33" fill="none" xmlns="http://www.w3.org/2000/svg">
<path d="M16.5576 21.1488C19.319 21.1488 21.5576 18.9102 21.5576 16.1488C21.5576 13.3874 19.319 11.1488 16.5576 11.1488C13.7961 11.1488 11.5576 13.3874 11.5576 16.1488C11.5576 18.9102 13.7961 21.1488 16.5576 21.1488Z" stroke="black" stroke-width="2" stroke-miterlimit="10"/>
<path d="M22.0576 4.6488H11.0576C7.74385 4.6488 5.05756 7.3351 5.05756 10.6488V21.6488C5.05756 24.9625 7.74385 27.6488 11.0576 27.6488H22.0576C25.3713 27.6488 28.0576 24.9625 28.0576 21.6488V10.6488C28.0576 7.3351 25.3713 4.6488 22.0576 4.6488Z" stroke="black" stroke-width="2" stroke-linecap="round" stroke-linejoin="round"/>
<path d="M23.0576 11.1488C23.886 11.1488 24.5576 10.4772 24.5576 9.6488C24.5576 8.82038 23.886 8.1488 23.0576 8.1488C22.2291 8.1488 21.5576 8.82038 21.5576 9.6488C21.5576 10.4772 22.2291 11.1488 23.0576 11.1488Z" fill="black"/>
</svg>
